<svg width="175" height="173" viewBox="0 0 175 173" fill="none" xmlns="http://www.w3.org/2000/svg">
<path d="M26.5103 80.8643H145.038V172.02C145.038 172.205 144.965 172.383 144.833 172.515C144.702 172.646 144.524 172.72 144.338 172.72H27.2103C27.0246 172.72 26.8465 172.646 26.7153 172.515C26.584 172.383 26.5103 172.205 26.5103 172.02V80.8643Z" fill="#C6C9D1" fill-opacity="0.7"/>
<path d="M115.304 45.1428H60.1905L26.5103 80.8642H145.038L115.304 45.1428Z" fill="#E4E4E4" fill-opacity="0.7"/>
<path d="M37.7369 30.8541L60.1904 45.1427L26.5102 80.8642L0.994751 61.4725L37.7369 30.8541Z" fill="white" fill-opacity="0.7"/>
<path d="M137.757 30.8541L115.303 45.1427L145.038 80.8642L174.499 61.4725L137.757 30.8541Z" fill="white" fill-opacity="0.7"/>
<path d="M74.67 31.5847C75.3036 31.2843 75.7966 30.7506 76.0459 30.0952C76.2952 29.4398 76.2816 28.7134 76.0079 28.0678L65.907 4.24985C65.7639 3.91248 65.5541 3.60753 65.2902 3.35333C65.0262 3.09912 64.7136 2.90092 64.3711 2.77064C64.0286 2.64036 63.6633 2.58069 63.2971 2.59522C62.9309 2.60974 62.5715 2.69817 62.2404 2.85517L60.2944 3.77791C59.9633 3.93491 59.6673 4.15724 59.4243 4.43154C59.1814 4.70584 58.9964 5.02645 58.8805 5.37408C58.7645 5.72171 58.7201 6.08918 58.7499 6.45442C58.7796 6.81965 58.8829 7.1751 59.0536 7.49939L71.1003 30.3944C71.4268 31.015 71.9806 31.4854 72.6459 31.7072C73.3111 31.929 74.0364 31.8851 74.67 31.5847Z" fill="#E4E4E4" fill-opacity="0.7"/>
<path d="M87.3338 29.2757C87.7924 29.243 88.2206 29.0344 88.529 28.6934C88.8374 28.3525 89.0021 27.9055 88.9887 27.446L88.4898 10.4897C88.4827 10.2496 88.4271 10.0133 88.3264 9.79513C88.2257 9.57697 88.0819 9.38143 87.9037 9.22027C87.7255 9.0591 87.5165 8.93563 87.2894 8.85729C87.0622 8.77894 86.8216 8.74734 86.5819 8.76437L85.1731 8.86475C84.9335 8.88181 84.6998 8.94713 84.4861 9.05678C84.2724 9.16644 84.0831 9.31817 83.9295 9.50285C83.7759 9.68754 83.6612 9.90137 83.5924 10.1315C83.5235 10.3616 83.5019 10.6033 83.5288 10.842L85.4366 27.698C85.4881 28.155 85.7144 28.5743 86.068 28.8683C86.4216 29.1623 86.8751 29.3083 87.3338 29.2757V29.2757Z" fill="#E4E4E4" fill-opacity="0.7"/>
<path d="M97.1102 35.5438C98.3716 36.2731 100.142 35.6039 101.124 34.0265L118.563 6.01909C119.605 4.34595 119.358 2.30671 118.021 1.53321L116.156 0.455212C114.818 -0.318428 112.927 0.48489 111.997 2.22243L96.4226 31.3077C95.5455 32.9458 95.8488 34.8144 97.1102 35.5438Z" fill="#E4E4E4" fill-opacity="0.7"/>
</svg>
