<svg width="126" height="126" viewBox="0 0 126 126" fill="none" xmlns="http://www.w3.org/2000/svg">
<path d="M89.3277 119.541C78.3407 124.664 66.6257 126.319 55.4177 124.955L91.1537 118.654C90.5517 118.958 89.9427 119.254 89.3277 119.541Z" fill="black"/>
<path d="M104.839 109.273C103.297 110.666 101.676 111.989 99.9777 113.236L45.3232 122.873C43.3174 122.284 41.3422 121.596 39.4055 120.81L104.839 109.273Z" fill="black"/>
<path d="M109.499 104.589C110.551 103.412 111.556 102.198 112.511 100.952L29.3275 115.619C30.6609 116.466 32.0242 117.262 33.4141 118.005L109.499 104.589Z" fill="black"/>
<path d="M117.651 93.0769C117.004 94.2539 116.317 95.4109 115.594 96.5459L24.9098 112.536C23.8423 111.72 22.7991 110.869 21.7821 109.981L63.9308 102.549C67.7868 102.452 71.6738 101.788 75.4738 100.514L117.651 93.0769Z" fill="black"/>
<path d="M86.6357 94.6839L119.779 88.8399C120.282 87.7349 120.754 86.6159 121.193 85.4839L91.1187 90.7869C89.7377 92.1839 88.2417 93.4879 86.6357 94.6839Z" fill="black"/>
<path d="M51.5068 100.878L18.3288 106.728C17.4805 105.865 16.6549 104.975 15.8535 104.058L45.9615 98.7499C47.7548 99.5959 49.6088 100.307 51.5068 100.878Z" fill="black"/>
<path d="M122.625 81.3699L94.9768 86.2449C95.7988 85.1139 96.5588 83.9429 97.2538 82.7369L123.542 78.1019C123.265 79.1999 122.96 80.2889 122.625 81.3699Z" fill="black"/>
<path d="M13.1045 100.681L40.7682 95.8029C39.6119 95.0269 38.4935 94.1879 37.4187 93.2879L11.1318 97.9229C11.7669 98.8639 12.4248 99.7829 13.1045 100.681Z" fill="black"/>
<path d="M99.3718 78.5019L124.412 74.0859C124.607 73.0269 124.773 71.9619 124.912 70.8919L100.623 75.1749C100.256 76.3019 99.8378 77.4119 99.3718 78.5019Z" fill="black"/>
<path d="M33.9758 90.0329L8.94828 94.4459C8.40838 93.5199 7.88958 92.5759 7.39258 91.6139L31.6651 87.3339C32.3985 88.2729 33.1698 89.1729 33.9758 90.0329Z" fill="black"/>
<path d="M125.297 66.9619L101.712 71.1209C101.937 70.0629 102.12 68.9939 102.258 67.9179L125.426 63.8329C125.409 64.8789 125.366 65.9219 125.297 66.9619Z" fill="black"/>
<path d="M5.69087 88.0519L29.2627 83.8949C28.6952 82.9839 28.1604 82.0419 27.6607 81.0719L4.50037 85.1549C4.87127 86.1249 5.26797 87.0909 5.69087 88.0519Z" fill="black"/>
<path d="M102.566 64.0019L125.367 59.9819C125.32 58.9599 125.247 57.9359 125.149 56.9139L102.534 60.9009C102.585 61.9369 102.596 62.9709 102.566 64.0019Z" fill="black"/>
<path d="M26.0348 77.4959L3.23542 81.5159C2.92742 80.5339 2.64492 79.5479 2.38782 78.5589L25.0029 74.5719C25.3065 75.5519 25.6502 76.5279 26.0348 77.4959Z" fill="black"/>
<path d="M95.5028 85.2619C94.7198 86.3819 90.9148 90.3269 90.0408 91.3399L98.8668 98.3659L107.822 106.108C110.121 103.739 112.263 101.157 114.217 98.3659C134.018 70.0869 127.145 31.1105 98.8668 11.3095C76.9888 -4.00957 48.7068 -3.36307 27.8567 10.8089L42.6651 28.4568C55.6688 20.6971 72.5548 20.7747 85.7628 30.0231C103.707 42.5871 108.067 67.3189 95.5028 85.2619Z" fill="black"/>
<path d="M80.3088 27.3719C81.5478 27.9494 82.7418 28.5826 83.8908 29.2673L91.2948 20.4437L98.6988 11.62C95.9668 9.76771 93.0518 8.10722 89.9638 6.66732C58.6758 -7.92228 20.0785 4.75022 5.48887 36.0377C-5.79843 60.2439 1.15627 88.8469 18.7336 106.919L33.542 89.2709C23.6421 77.8129 20.7862 61.1699 27.6005 46.5559C36.8579 26.7036 60.4568 18.1145 80.3088 27.3719Z" fill="black"/>
</svg>
